<?xml version="1.0" encoding="utf-8"?>
<!-- Generator: Adobe Illustrator 15.1.0, SVG Export Plug-In . SVG Version: 6.00 Build 0)  -->
<!DOCTYPE svg PUBLIC "-//W3C//DTD SVG 1.1//EN" "http://www.w3.org/Graphics/SVG/1.1/DTD/svg11.dtd">
<svg version="1.1" id="Layer_1" xmlns="http://www.w3.org/2000/svg" xmlns:xlink="http://www.w3.org/1999/xlink" x="0px" y="0px"
	 width="240px" height="240px" viewBox="0 0 240 240" enable-background="new 0 0 240 240" xml:space="preserve">
<path d="M120-0.01C53.734-0.01,0,53.734,0,120c0,66.266,53.734,120.01,120,120.01c66.266,0,119.99-53.744,119.99-120.01
	C239.99,53.734,186.266-0.01,120-0.01 M119.99,205.477c-47.123,0-85.476-38.363-85.476-85.485c0-19.494,6.616-38.123,18.669-53.227
	l-7.53-7.286l43.733-18.156l-16.69,44.335l-8.931-8.619c-9.4,12.291-14.533,27.303-14.533,42.953
	c0,39.017,31.727,70.768,70.758,70.768c39.035,0,70.787-31.751,70.787-70.768c0-39.012-31.752-70.738-70.787-70.738V34.534
	c47.143,0,85.484,38.333,85.484,85.456C205.477,167.104,167.133,205.477,119.99,205.477"/>
</svg>
